<svg xmlns="http://www.w3.org/2000/svg" width="55" height="56" viewBox="0 0 55 56">
  <title>Menu lock</title>
  <g fill="#fff" stroke="#fff" opacity=".9">
    <path d="M18.5 22v-8a5 5 0 0 1 5-5h10a5 5 0 0 1 5 5v4" fill="none" stroke-width="5" stroke-linecap="round" stroke-linejoin="round"/>
    <path fill-rule="evenodd" stroke="none" d="M14 20h27a4 4 0 0 1 4 4v18a4 4 0 0 1-4 4H14a4 4 0 0 1-4-4V24a4 4 0 0 1 4-4Zm13.5 7a3 3 0 0 0-1.6 5.5v5a1.6 1.6 0 0 0 3.2 0v-5a3 3 0 0 0-1.6-5.5Z"/>
  </g>
</svg>
